<svg id="Calque_1" data-name="Calque 1" xmlns="http://www.w3.org/2000/svg" viewBox="0 0 716.53 722.55"><defs><style>.cls-1,.cls-2{fill:#fff;stroke:#000;}.cls-1,.cls-2,.cls-3{stroke-miterlimit:10;}.cls-1{stroke-width:4px;}.cls-2{stroke-width:3px;}.cls-3{stroke:#1d1d1b;}.cls-4{fill:#3a0e13;}.cls-5{fill:#c61037;}.cls-6{font-size:72px;font-family:Luna, Luna;}</style></defs><title>logo</title><path d="M329.19,623.2c-5.23,3.83-12.91-16.54-39.54,16.2,0,0-3.87-1.07-4.27-10.89-.15-3.83-3.09.2-8.53.15-2,0-24.47.59-32.14,6.39-2.19,1.66-3.71-11.22,7.23-14.55,6-1.83,13.07.44,14.55-.52s-15.82-8,4.41-8.63c11.8-.35,22,5.75,25-.35s17.25-44.77,19.25-45.64a1.45,1.45,0,0,1,1.57.3h0a10.31,10.31,0,0,1,.82.77,3.82,3.82,0,0,0,3.69,1.44,5.19,5.19,0,0,0,1.55-.61c2.62-1.49,4.65-4.94,6.55-5.75,0,0,1.11.63.91,2.65,0,.1,0,.2,0,.31-.35,2.26-18.64,40.24-10.1,45.82S334.42,619.37,329.19,623.2Z"/><path d="M390.34,618c-1.54,3,3.83,8.54,5.23,10.1s1.22,10.45-3.48,11.32c-10.56,2-14.63-22.82-17.94-23s-39,29.44-43.9,24c-11.41-12.63,23.87-21.78,20.56-24.74-1.65-1.48-18.64-.17-18.64-3.48,0-9.94,19.34-5.05,22.47-7.14,19.74-13.16,12.54-51.39,15-47.38.56.93,1.64,1.14,3,1,4.19-.53,10.8-4.92,11.14-3.24a1,1,0,0,1,0,.35c-9.23,55,4,47.73,10,50.35,1.16.51,12.42,2.36,14.42,8.49C411.31,624.44,391.64,615.45,390.34,618Z"/><path class="cls-1" d="M490.86,306.85c4.54,7.14-5.34,20.9-5.11,23s9.29,6.27,5.8,18.12-17,6.5-14.17,10.68c11.76,17.65-5.57,24.63-9.06,27.69s-.47,18.3-.7,24.34,9.41,19.85,5.11,24.39c-1.36,1.44-4.65,2.32-1.62,22.07s-75,84-76.77,85.07-2.61-1.39-4.18-.17c-1.11.86-2.22,8.58-6.45,13.41a10.7,10.7,0,0,1-7.14,3.83,8.07,8.07,0,0,1-4-.59c-7.48-3.12-10.54-16.82-12-17.87-1.74-1.22-5.4,8.54-7.49,9.41s-1.22-1-3.48.35-4,5.57-6.45,6.45-4.36-1.92-7.84,3a15.89,15.89,0,0,1-5,4.22,32.93,32.93,0,0,1-7.46,3.1,5.41,5.41,0,0,1-.88.17,5.25,5.25,0,0,1-4.36-1,8.26,8.26,0,0,1-.82-.77h0a9.28,9.28,0,0,1-.85-1.05c-2.68-3.78-10.4-10.4-15.27-12.49s-12.77-18.58-20.21-19.74c-6.69-1-5.11-19.75-48.55-35.77s-55.51-53-58.07-65.5,2.79-23.92-8.59-42.27,12.54-107.16,9.46-116.14a.37.37,0,0,0-.18-.09c-.85-.17-2.9,2.2-7.39,3.08h0a17.68,17.68,0,0,1-3.39.31,13.29,13.29,0,0,1-5.31-1,13.11,13.11,0,0,1-5.8-5l0-.06c-6.09-9.23-4.84-26-5.78-28.63-.07-.18-.14-.29-.23-.33-2.42-1.16-8.81.26-13.87,1.53-3.31.83-6.06,1.59-6.78,1.52a7.79,7.79,0,0,1-1.09-.15c-.63-.15-.82-.45-.53-1.21a8.79,8.79,0,0,1,.52-1.06q.54-1,1.09-1.84l.13-.19c4.42-7,8.84-8.45,15-10h0c1.14-.29,2.35-.59,3.62-.93q1.19-.31,2.47-.69a11.63,11.63,0,0,0,1.45-.54,14.7,14.7,0,0,0,1.87-1h0c3.16-2,5.85-5.38,8.83-8.82,3.18-3.68,6.7-7.49,11.49-10a24.43,24.43,0,0,1,7-2.4,54.41,54.41,0,0,1,15.23-.76,41.41,41.41,0,0,1,4.38.68c41.94,8.72,45.47,78.06,94.08,105.53,3.33,1.88,15.45-3.37,22.14-3.71s10,1.92,20.75,2.09,27.09-9.93,29.87-11.07,11,.35,13.68-3-2.7-9.67-1.78-15,5.34-3.71,5.34-11.15c0-48.78,26-73.86,30-76.65,24.58-17.35,28.34,1.39,30,2.33s2.32-2.33,6.5-2.33c7.93,0,10.45,12.31,14.17,16.49s7.66-.93,15.09,5.11,2.79,12.54,4.88,13.48,4.42,1.62,2.79,3.94-2.55,12.08,1.86,14.17c19.92,9.43,4,17.88,4.18,23.92s10.68,8.36,12.08,18.58S489.23,304.29,490.86,306.85Z"/><path class="cls-2" d="M150.42,226.33c3.78-2.86,9.1-10.42,9.1-10.42a7.39,7.39,0,0,0-.27,1.6c0,.33,0,.7-.06,1.08-.22,7.64,2.87,24.26-1.2,23.55l-.3,0a59.54,59.54,0,0,0-10.92-.8h-.61a104.9,104.9,0,0,0-13.48,1.18c-2.42.36-5,.8-7.87,1.37-1.87.37-.17-2.27,1.07-4.11l.13-.19c1.16-1.71,4.48-6.32,15-10h0c.88-.31,1.8-.61,2.79-.91,1.46-.44,3-.86,4.72-1.25h0a5.6,5.6,0,0,0,1.87-1h0"/><path class="cls-3" d="M197.36,205a1.66,1.66,0,0,1-.56.08c-.65,0-2.86,0-3.48,0-10-.24-17.39,3.1-22.58,5.19a29.21,29.21,0,0,0-11.55,8.29c-4.56,5.21-6.74,10.19-13.38,10-.41,0-.81,0-1.18,0s-.56,0-.84,0c-5.06.26-7.27,2.18-7.27,2.18-7-5.57,2.79-10.91,2.09-12.89-5.46-15.48,6.4-12.51,8.1-14.12s.57-3.22-.43-5.88c-2.53-6.71,7.2-4.09,8.88-5s1.14-4.56,1.1-5.17c-.38-8.14,9.53.31,10.61.35s5.53-6.23,8.36-7.14,6.4,6.71,7.49,6.71,2.61-3.57,5.75-3.57c4.88,0,5.32,5.88,6.4,6.62C204.42,197.14,200.11,204.2,197.36,205Z"/><circle class="cls-4" cx="171.28" cy="225.41" r="4.25"/><path d="M175.2,272c-.47.31-.93.43-1.39.7a26,26,0,0,1-6.7,3h0a12.15,12.15,0,0,1-8.7-.71,15.62,15.62,0,0,1-5.8-5l0-.06c-6.8-9.31-7.72-26-6.4-28.62.11-.22.24-.34.38-.34a50.3,50.3,0,0,1,11.15,1.14C181.66,247.54,177,270.82,175.2,272Z"/><path class="cls-5" d="M157.17,236.62a6.58,6.58,0,0,0-3.36-2.16c-.33-.07-.65-.18-1-.22l-1-.12a16.18,16.18,0,0,0-2,0,31.7,31.7,0,0,0-8,1.78c-.65.24-1.3.45-1.94.7l-1.9.8c-1.27.51-2.53,1.09-3.84,1.54-2.58,1-5.14,1.92-7.71,3l-.13-.16a16.72,16.72,0,0,1,3.31-2.72,30.86,30.86,0,0,1,3.72-2.08,43.4,43.4,0,0,1,8-2.72,33,33,0,0,1,8.43-1.22,17.13,17.13,0,0,1,2.15.17l1.06.23c.35.08.69.22,1,.33a6.75,6.75,0,0,1,3.32,2.64Z"/><text class="cls-6" transform="translate(246.25 101.96) rotate(-8.2)">P</text><text class="cls-6" transform="matrix(1, -0.05, 0.05, 1, 289, 96.37)">i</text><text class="cls-6" transform="translate(304.86 94.58) rotate(3.17)">c</text><text class="cls-6" transform="translate(354.78 97.12) rotate(12.29)">o</text><text class="cls-6" transform="matrix(0.93, 0.37, -0.37, 0.93, 403.85, 107.54)">t</text><text class="cls-6" transform="translate(451.97 127.57) rotate(27.86)">i</text><text class="cls-6" transform="matrix(0.84, 0.54, -0.54, 0.84, 466.59, 134.85)"> </text><text class="cls-6" transform="translate(494.57 152.12) rotate(39.29)">P</text><text class="cls-6" transform="matrix(0.71, 0.7, -0.7, 0.71, 527.57, 179.84)">i</text><text class="cls-6" transform="matrix(0.63, 0.77, -0.77, 0.63, 539.63, 190.34)">c</text><text class="cls-6" transform="translate(571.45 228.88) rotate(59.82)">o</text><text class="cls-6" transform="translate(596.89 272.1) rotate(69.12)">t</text><text class="cls-6" transform="translate(615.66 319.74) rotate(79.17)">a</text></svg>