<svg xmlns="http://www.w3.org/2000/svg" xmlns:xlink="http://www.w3.org/1999/xlink" version="1.1" x="0px" y="0px" viewBox="0 0 66 82.5" style="enable-background:new 0 0 66 66;" xml:space="preserve"><g><path d="M33,37C15.7,37,6.2,45.1,6.2,59.9v1.5h53.7v-1.5C59.8,45.1,50.3,37,33,37z M9.2,58.4C10,43.2,22.5,40,33,40   c10.5,0,23,3.2,23.8,18.4H9.2z"/><path d="M33,34.6c7.4,0,13.4-7,13.4-15.5c0-8.3-5.7-14.5-13.4-14.5c-7.6,0-13.4,6.2-13.4,14.5C19.6,27.7,25.6,34.6,33,34.6z    M33,7.6c6,0,10.4,4.8,10.4,11.5c0,6.9-4.7,12.5-10.4,12.5S22.6,26,22.6,19.1C22.6,12.5,27,7.6,33,7.6z"/></g><text x="0" y="81" fill="#000000" font-size="5px" font-weight="bold" font-family="'Helvetica Neue', Helvetica, Arial-Unicode, Arial, Sans-serif">Created by Ananth</text><text x="0" y="86" fill="#000000" font-size="5px" font-weight="bold" font-family="'Helvetica Neue', Helvetica, Arial-Unicode, Arial, Sans-serif">from the Noun Project</text></svg>